<?xml version="1.0" encoding="UTF-8"?>
<svg id="_レイヤー_1" data-name="レイヤー_1" xmlns="http://www.w3.org/2000/svg" xmlns:xlink="http://www.w3.org/1999/xlink" version="1.1" viewBox="0 0 24 24">
  <!-- Generator: Adobe Illustrator 29.3.1, SVG Export Plug-In . SVG Version: 2.1.0 Build 151)  -->
  <defs>
    <style>
      .st0 {
        fill: #fff;
        fill-rule: evenodd;
      }

      .st1 {
        fill: #10288b;
      }
    </style>
  </defs>
  <circle class="st1" cx="12" cy="12" r="12"/>
  <path class="st0" d="M16.1,16.9c.2.2.5.2.7,0,.2-.2.2-.5,0-.7l-4.1-4.1,4.1-4.1c.2-.2.2-.5,0-.7-.2-.2-.5-.2-.7,0l-4.1,4.1-4.1-4.1c-.2-.2-.5-.2-.7,0-.2.2-.2.5,0,.7l4.1,4.1-4.1,4.1c-.2.2-.2.5,0,.7s.5.2.7,0l4.1-4.1,4.1,4.1Z"/>
</svg>