<svg xmlns="http://www.w3.org/2000/svg" width="16" height="15.267" viewBox="0 0 16 15.267"><g transform="translate(0 -11.725)"><path d="M423.387,146.276l-.621-.621a.965.965,0,0,0-1.364,0l-.581.581,1.986,1.986.581-.581A.966.966,0,0,0,423.387,146.276Z" transform="translate(-407.669 -129.471)" fill="#fff"/><path d="M246.553,195.259v1.986h1.986l4.9-4.9-1.986-1.986Z" transform="translate(-238.848 -173.048)" fill="#fff"/><path d="M6.77,25.132V21.824l4.966-4.966V11.725H0V26.992H11.736V23.474l-1.658,1.658Zm-4.33-9.668H8.049V16.4H2.441Zm0,3.427H8.049v.935H2.441Zm3.427,4.362H2.441v-.935H5.868Z" fill="#fff"/></g></svg>