<svg xmlns="http://www.w3.org/2000/svg" width="18" height="18" viewBox="0 0 18 18"><g transform="translate(0 -0.683)"><path d="M14.018,8.675a4,4,0,1,0-3.985-4,4.057,4.057,0,0,0,.173,1.174L6.166,8.3a3.56,3.56,0,1,0,.083,4.713L9.3,14.626a3.119,3.119,0,1,0,.609-1.1L6.932,11.787A3.544,3.544,0,0,0,7.1,10.7a3.451,3.451,0,0,0-.16-1.051l4.149-2.266A3.966,3.966,0,0,0,14.018,8.675ZM12.1,2.763a2.707,2.707,0,1,1,1.914,4.626,2.662,2.662,0,0,1-1.751-.649h0c-.054-.045-.109-.093-.16-.145a2.717,2.717,0,0,1-.747-1.44,2.593,2.593,0,0,1-.042-.476A2.705,2.705,0,0,1,12.1,2.763ZM5.778,11.112a2.24,2.24,0,0,1-.625,1.2c-.026.026-.054.052-.083.077A2.266,2.266,0,0,1,1.283,10.7,2.265,2.265,0,0,1,5.034,8.987c.042.035.08.071.119.109a2.267,2.267,0,0,1,.625,1.19,2.224,2.224,0,0,1,.038.418A2.145,2.145,0,0,1,5.778,11.112Zm4.691,4.131a1.826,1.826,0,0,1,.51-.977.7.7,0,0,1,.074-.068,1.788,1.788,0,0,1,1.218-.469,1.834,1.834,0,1,1-1.292,3.131,1.834,1.834,0,0,1-.539-1.3A1.76,1.76,0,0,1,10.469,15.243Z" transform="translate(0)" fill="#003893"/></g></svg>