<svg xmlns="http://www.w3.org/2000/svg" width="12.307" height="10" viewBox="0 0 12.307 10"><g transform="translate(-1 -1.497)"><path d="M12.047,3.987c.007.108.007.217.007.326A7.135,7.135,0,0,1,4.87,11.5v0A7.148,7.148,0,0,1,1,10.363a5.135,5.135,0,0,0,.6.036A5.07,5.07,0,0,0,4.737,9.317,2.528,2.528,0,0,1,2.378,7.564a2.517,2.517,0,0,0,1.14-.043A2.525,2.525,0,0,1,1.492,5.045V5.013a2.509,2.509,0,0,0,1.146.316,2.528,2.528,0,0,1-.781-3.371A7.166,7.166,0,0,0,7.061,4.6a2.527,2.527,0,0,1,4.3-2.3,5.066,5.066,0,0,0,1.6-.613,2.534,2.534,0,0,1-1.11,1.4,5.021,5.021,0,0,0,1.45-.4A5.129,5.129,0,0,1,12.047,3.987Z" transform="translate(0 0)" fill="#fff"/></g></svg>