<svg xmlns="http://www.w3.org/2000/svg" width="10.445" height="9.952" viewBox="0 0 10.445 9.952"><g transform="translate(-0.133 0.014)"><path d="M10.445,4.238C10.445,1.9,8.1,0,5.222,0S0,1.9,0,4.238c0,2.1,1.858,3.85,4.368,4.181.17.037.4.112.46.258a1.073,1.073,0,0,1,.017.472s-.061.369-.075.447c-.023.132-.1.516.452.282a16.863,16.863,0,0,0,4.1-3.032h0a3.771,3.771,0,0,0,1.119-2.608" transform="translate(0.134 -0.014)" fill="#fff"/><path d="M147.44,65.989h-1.467a.1.1,0,0,1-.1-.1v0h0V63.612h0v0a.1.1,0,0,1,.1-.1h1.467a.1.1,0,0,1,.1.1v.37a.1.1,0,0,1-.1.1h-1v.385h1a.1.1,0,0,1,.1.1v.37a.1.1,0,0,1-.1.1h-1v.385h1a.1.1,0,0,1,.1.1v.37a.1.1,0,0,1-.1.1" transform="translate(-138.599 -60.415)" fill="#06c755"/><path d="M36.566,65.989a.1.1,0,0,0,.1-.1v-.37a.1.1,0,0,0-.1-.1h-1V63.61a.1.1,0,0,0-.1-.1H35.1a.1.1,0,0,0-.1.1v2.277h0v0a.1.1,0,0,0,.1.1h1.467Z" transform="translate(-33.152 -60.415)" fill="#06c755"/><path d="M75.921,63.51h-.37a.1.1,0,0,0-.1.1v2.279a.1.1,0,0,0,.1.1h.37a.1.1,0,0,0,.1-.1V63.61a.1.1,0,0,0-.1-.1" transform="translate(-71.624 -60.415)" fill="#06c755"/><path d="M96.433,63.51h-.37a.1.1,0,0,0-.1.1v1.354L94.92,63.555l-.008-.01h0l-.006-.006,0,0-.005,0,0,0-.005,0,0,0-.006,0,0,0-.006,0h0l-.006,0h-.4a.1.1,0,0,0-.1.1v2.279a.1.1,0,0,0,.1.1h.37a.1.1,0,0,0,.1-.1V64.536l1.044,1.41a.1.1,0,0,0,.026.025h0l.006,0,0,0,0,0,0,0h0l.007,0h0a.1.1,0,0,0,.026,0h.368a.1.1,0,0,0,.1-.1V63.61a.1.1,0,0,0-.1-.1" transform="translate(-89.614 -60.415)" fill="#06c755"/></g></svg>