<svg xmlns="http://www.w3.org/2000/svg" width="12.002" height="10" viewBox="0 0 12.002 10"><g transform="translate(-113.6 -136.4)"><path d="M120.842,141.754a2.367,2.367,0,0,0-1.663-.748,2.688,2.688,0,0,0,1.381-.761,1.992,1.992,0,0,0,.431-1.351,2.42,2.42,0,0,0-.29-1.192,2.147,2.147,0,0,0-.845-.818,3.624,3.624,0,0,0-1.153-.378,16.972,16.972,0,0,0-2.363-.106H113.6v10h2.824a18.371,18.371,0,0,0,2.455-.114,4,4,0,0,0,1.258-.392,2.31,2.31,0,0,0,.963-.941,2.866,2.866,0,0,0,.339-1.412A2.56,2.56,0,0,0,120.842,141.754Zm-4.707-3.141h.585a2.746,2.746,0,0,1,1.364.229.876.876,0,0,1,.348.792.812.812,0,0,1-.374.766,2.942,2.942,0,0,1-1.381.22h-.541Zm2.323,5.732a2.8,2.8,0,0,1-1.368.242h-.955V142.41h.994a2.588,2.588,0,0,1,1.359.251.993.993,0,0,1,.37.88.821.821,0,0,1-.4.809Z" transform="translate(0)" fill="#fff"/><path d="M330.067,306.1a1.267,1.267,0,1,0,1.267,1.267A1.267,1.267,0,0,0,330.067,306.1Z" transform="translate(-205.732 -162.234)" fill="#fff"/><rect width="2.2" height="6.666" transform="translate(123.235 136.4)" fill="#fff"/></g></svg>