<svg xmlns="http://www.w3.org/2000/svg" width="18" height="13.719" viewBox="0 0 18 13.719"><path d="M3.082,215.156H.665a.665.665,0,0,0-.665.666v6.964a.665.665,0,0,0,.665.665H3.082a.665.665,0,0,0,.666-.665v-6.964A.665.665,0,0,0,3.082,215.156Z" transform="translate(0 -209.733)" fill="#fff"/><path d="M146.272,65.2h-6.61a1.14,1.14,0,0,0-.247.029h-.1a3.731,3.731,0,0,0,.424-2.069c-.075-.789-.74-2.184-1.766-2.266-.79-.063-.943.233-.943,1.026,0,0,.009.768.009,1.26,0,.882-.294,1.33-1.33,2.074a5.178,5.178,0,0,0-1.6,1.486v5.282a1.873,1.873,0,0,0,2.075,1.9h4.926c.68,0,1.6-.328,1.6-1.23a1.226,1.226,0,0,0-.357-.866,1.221,1.221,0,0,0,.6-2.162,1.225,1.225,0,0,0,.066-2.222h3.254a1.122,1.122,0,1,0,0-2.245Z" transform="translate(-129.394 -60.891)" fill="#fff"/></svg>