<svg width="32" height="33" viewBox="0 0 32 33" fill="none" xmlns="http://www.w3.org/2000/svg">
<path d="M18.4301 0.984375V13.7844H31.2301C31.2301 6.71237 25.5021 0.984375 18.4301 0.984375ZM21.6301 10.5844V4.72838C24.3501 5.68838 26.5101 7.84838 27.4861 10.5844H21.6301ZM7.93408 15.3844L6.41408 12.1844H0.830078V15.3844H4.38208C4.38208 15.3844 7.40608 21.8964 7.77408 22.4564C6.01408 23.4004 4.83008 25.2564 4.83008 27.3844C4.83008 30.4724 7.34208 32.9844 10.4301 32.9844C13.2461 32.9844 15.5821 30.9044 15.9661 28.1844H19.2941C19.6781 30.9044 22.0141 32.9844 24.8301 32.9844C27.9181 32.9844 30.4301 30.4724 30.4301 27.3844C30.4301 25.7204 29.6941 24.2324 28.5421 23.2084C30.2221 21.0484 31.2301 18.3284 31.2301 15.3844H7.93408ZM10.4301 29.7844C9.10208 29.7844 8.03008 28.7124 8.03008 27.3844C8.03008 26.0564 9.10208 24.9844 10.4301 24.9844C11.7581 24.9844 12.8301 26.0564 12.8301 27.3844C12.8301 28.7124 11.7581 29.7844 10.4301 29.7844ZM24.8301 29.7844C23.5021 29.7844 22.4301 28.7124 22.4301 27.3844C22.4301 26.0564 23.5021 24.9844 24.8301 24.9844C26.1581 24.9844 27.2301 26.0564 27.2301 27.3844C27.2301 28.7124 26.1581 29.7844 24.8301 29.7844ZM26.0141 21.2404L25.5501 21.8324C25.3261 21.8004 25.0701 21.7844 24.8301 21.7844C22.6061 21.7844 20.6701 23.0964 19.7741 24.9844H15.4861C14.6861 23.3204 13.0861 22.1044 11.1981 21.8324L10.4941 20.7604C10.3341 20.4884 9.95008 19.6564 9.42208 18.5844H27.4861C27.1501 19.5284 26.6541 20.4244 26.0141 21.2404Z" fill="#15378E"/>
</svg>
