<svg width="33" height="30" viewBox="0 0 33 30" fill="none" xmlns="http://www.w3.org/2000/svg">
<path fill-rule="evenodd" clip-rule="evenodd" d="M28.7173 20.7154L30.3514 20.7157L30.3547 4.62349L29.5378 3.80628L28.7206 4.62315L28.7173 20.7154ZM32.8631 28.3805C32.863 28.7179 32.7209 29.0376 32.4988 29.2596C32.2679 29.4905 31.9659 29.6325 31.6106 29.6324L27.4544 29.6316C26.7617 29.6314 26.2023 29.0718 26.2024 28.3791L26.2031 25.1287L32.8638 25.1301L32.8631 28.3805ZM32.8682 3.58493L32.8642 23.2295L26.2035 23.2282L26.2075 3.58357L29.5385 0.253906L32.8682 3.58493ZM20.9634 13.2994L14.8972 6.22212H3.38007V26.736H20.9634V13.2994ZM3.38007 3.29157H14.8972C15.5628 3.29157 16.2033 3.59928 16.668 4.15608L22.7343 11.2334C23.2116 11.7755 23.4753 12.5228 23.4753 13.2994V26.736C23.4753 28.3478 22.3449 29.6666 20.9634 29.6666H3.38007C1.99852 29.6666 0.868164 28.3478 0.868164 26.736V6.22212C0.868164 4.61032 1.99852 3.29157 3.38007 3.29157ZM18.4515 20.8749H5.89197V23.8055H18.4515V20.8749ZM18.4515 15.0138H5.89197V17.9443H18.4515V15.0138ZM14.6836 9.15268H5.89197V12.0832H14.6836V9.15268Z" fill="#15378E"/>
</svg>
