<svg width="33" height="28" viewBox="0 0 33 28" fill="none" xmlns="http://www.w3.org/2000/svg">
<path d="M16.6035 0.875L0.603516 13.0932L2.36352 15.4059L4.96715 13.4132V27.0568H28.2399V13.4132L30.8435 15.3914L32.6035 13.0932L16.6035 0.875ZM25.3308 24.1477H7.87624V11.2023L16.6035 4.54045L25.3308 11.2023V24.1477ZM12.2399 16.875C12.2399 17.675 11.5853 18.3295 10.7853 18.3295C9.98533 18.3295 9.33079 17.675 9.33079 16.875C9.33079 16.075 9.98533 15.4205 10.7853 15.4205C11.5853 15.4205 12.2399 16.075 12.2399 16.875ZM16.6035 15.4205C17.4035 15.4205 18.0581 16.075 18.0581 16.875C18.0581 17.675 17.4035 18.3295 16.6035 18.3295C15.8035 18.3295 15.149 17.675 15.149 16.875C15.149 16.075 15.8035 15.4205 16.6035 15.4205ZM20.9672 16.875C20.9672 16.075 21.6217 15.4205 22.4217 15.4205C23.2217 15.4205 23.8762 16.075 23.8762 16.875C23.8762 17.675 23.2217 18.3295 22.4217 18.3295C21.6217 18.3295 20.9672 17.675 20.9672 16.875Z" fill="#15378E"/>
</svg>
