<svg width="33" height="33" viewBox="0 0 33 33" fill="none" xmlns="http://www.w3.org/2000/svg">
<path fill-rule="evenodd" clip-rule="evenodd" d="M27.6444 3.855C27.6444 5.61946 26.214 7.04984 24.4496 7.04984C22.6851 7.04984 21.2547 5.61946 21.2547 3.855C21.2547 2.09054 22.6851 0.660156 24.4496 0.660156C26.214 0.660156 27.6444 2.09054 27.6444 3.855ZM24.4496 8.64726C25.8074 8.64726 27.0374 9.47792 27.5486 10.7399L32.4367 23.024H27.6444V32.6086H21.2547V23.024H16.4625L21.3506 10.7399C21.8617 9.47792 23.0917 8.64726 24.4496 8.64726ZM10.191 3.90551C10.191 5.66997 8.76059 7.10035 6.99613 7.10035C5.23167 7.10035 3.80129 5.66997 3.80129 3.90551C3.80129 2.14105 5.23167 0.710669 6.99613 0.710669C8.76059 0.710669 10.191 2.14105 10.191 3.90551ZM0.606445 11.8926C0.606445 10.1355 2.04412 8.69777 3.80129 8.69777H10.191C11.9481 8.69777 13.3858 10.1355 13.3858 11.8926V21.4771H10.191V32.6591H3.80129V21.4771H0.606445V11.8926Z" fill="#15378E"/>
</svg>
