<svg width="480" height="193" viewBox="0 0 480 193" fill="none" xmlns="http://www.w3.org/2000/svg">
<g clip-path="url(#clip0_361_108)">
<mask id="mask0_361_108" style="mask-type:luminance" maskUnits="userSpaceOnUse" x="0" y="0" width="480" height="193">
<path d="M480 0H0V192.411H480V0Z" fill="white"/>
</mask>
<g mask="url(#mask0_361_108)">
<path d="M2.60268 83.2656L11.7758 85.2004C8.87854 97.1138 7.74908 108.457 8.39729 119.241C8.87854 117.473 9.43836 115.941 10.0866 114.655L14.9187 119.006C12.9839 123.514 11.3732 128.424 10.0866 133.738L2.35715 134.219C-0.864263 119.251 -0.785692 102.27 2.60268 83.2754M31.8213 114.429C31.4972 111.207 31.34 108.801 31.34 107.181C26.3508 107.348 21.4401 107.426 16.608 107.426L16.3624 99.4513C23.1195 99.4513 28.1874 99.2941 31.5757 98.97V93.6566C27.2249 93.9807 22.8838 94.1379 18.533 94.1379V85.9272C26.4195 86.0844 35.5927 85.6031 46.0623 84.4737V92.4388L40.2677 92.92L40.0221 98.2334C43.8819 98.0763 46.9364 97.7522 49.1953 97.2709V105.236C46.9364 105.56 43.8819 105.884 40.0221 106.199C40.0221 110.058 40.2677 113.604 40.7489 116.825C44.2846 118.279 48.0756 120.371 52.1024 123.101L48.2426 130.349C46.1507 128.414 43.5676 126.725 40.5132 125.281C40.356 127.049 39.7078 128.66 38.5784 130.114C37.2918 131.881 35.5141 133.011 33.265 133.492C29.2382 134.455 25.6927 134.297 22.6383 133.011C18.7785 131.4 16.6865 128.748 16.3624 125.046C16.0383 121.029 17.5705 117.965 20.949 115.873C24.0035 113.938 27.6275 113.457 31.8114 114.419M32.2927 121.903C28.4329 120.783 26.0168 121.098 25.0445 122.865C24.3963 123.995 24.3963 124.879 25.0445 125.527C25.5258 126.175 26.4097 126.489 27.7061 126.489C31.0847 126.489 32.6168 124.957 32.2927 121.903Z" fill="white"/>
<path d="M64.8604 82.5389L73.0711 84.2282C70.4979 94.8549 69.8497 106.287 71.1363 118.515L74.0336 111.266L79.8282 115.126C77.5693 120.597 75.88 126.077 74.7603 131.548L66.5497 132.991C61.2363 116.413 60.6765 99.5888 64.8604 82.5291M79.7201 95.5719C87.9308 95.896 93.4013 95.9746 96.1415 95.8174L95.9058 82.0479L104.116 82.5291L104.362 95.0808C106.778 94.9237 109.587 94.6781 112.808 94.354V102.319C109.911 102.8 107.092 103.046 104.362 103.046C105.167 116.57 101.543 127.187 93.4995 134.916L87.2237 128.876C90.9263 125.34 93.421 121.392 94.7076 117.041C95.837 113.663 96.3183 109.155 96.1513 103.517C90.5138 103.841 85.0433 103.841 79.73 103.517V95.5522L79.7201 95.5719Z" fill="white"/>
<path d="M116 130.349C122.6 114.095 129.436 97.9092 136.527 81.812L145.464 84.945C141.605 92.8316 138.383 100.08 135.81 106.68C138.864 104.431 141.85 103.782 144.747 104.745C147.802 105.874 149.334 108.045 149.334 111.266V121.893C149.334 123.828 149.972 124.633 151.269 124.309C152.722 123.828 154.726 122.139 157.309 119.241C159.244 117.149 160.53 115.303 161.169 113.692L167.445 120.449C164.066 126.087 159.794 130.192 154.647 132.765C151.269 134.533 148.126 135.014 145.229 134.209C141.85 133.247 140.239 130.988 140.397 127.452L140.642 116.589C140.642 113.211 139.11 112.406 136.055 114.173C132.834 115.951 130.506 118.681 129.053 122.384C128.247 124.643 126.882 128.581 124.948 134.219L116.01 130.359L116 130.349Z" fill="white"/>
<path d="M202.595 134.582L199.001 128.189C204.068 126.46 207.467 124.319 209.195 121.795C212.525 116.865 213.124 112.131 210.993 107.593C208.989 103.193 205.394 101.062 200.199 101.199C200.199 115.067 197.262 124.525 191.399 129.593C189.002 131.597 186.527 132.127 184.003 131.194C181.332 130.133 179.338 128.198 178.003 125.399C175.331 120.066 175.262 114.399 177.796 108.399C180.33 102.673 184.465 98.6655 190.191 96.3968C194.326 94.7959 198.392 94.2655 202.389 94.7959C206.651 95.1986 210.256 96.7995 213.183 99.5986C216.65 102.8 218.584 106.798 218.987 111.6C219.38 116.796 218.182 121.402 215.392 125.399C212.456 129.534 208.193 132.598 202.595 134.592M193.402 101.995C187.402 104.126 184.072 108.457 183.404 114.989C183.139 116.855 183.336 118.721 184.003 120.587C184.799 122.856 185.869 123.651 187.205 122.983C188.934 122.188 190.407 119.988 191.605 116.383C192.803 112.789 193.402 107.986 193.402 101.985" fill="white"/>
<path d="M373.959 115.549C379.812 112.298 386.098 107.642 392.816 101.563L399.317 110.667C393.896 115.873 387.502 121.068 380.136 126.274L373.959 115.549Z" fill="white"/>
<path d="M394.446 131.155L397.373 120.43C402.362 123.032 406.477 124.005 409.728 123.357C412.331 122.924 413.411 121.52 412.979 119.133C412.537 117.179 411.349 115.234 409.404 113.28L402.578 106.454C399.543 103.203 398.237 99.412 398.679 95.071C398.895 91.604 400.408 88.3532 403.226 85.3184L413.627 90.5237C411.025 94.2067 411.025 97.6736 413.627 100.925C414.708 102.447 417.094 105.049 420.777 108.723C423.38 111.325 425.01 114.036 425.658 116.855C426.955 122.492 426.091 127.04 423.056 130.507C420.021 133.757 415.798 135.388 410.376 135.388C404.955 135.388 399.858 133.973 394.446 131.165" fill="white"/>
<path d="M396.076 74.5837L401.93 64.8311C410.386 68.0819 417.968 71.3328 424.686 74.5837L419.157 84.3363C412.439 80.8694 404.739 77.6185 396.076 74.5837Z" fill="white"/>
<path d="M422.083 102.545L430.54 94.7468C435.745 99.7361 441.265 106.454 447.118 114.9L437.69 123.032C434.223 117.395 429.017 110.569 422.083 102.545Z" fill="white"/>
<path d="M426.955 79.1309L431.836 74.2595L439.634 81.4095L434.763 86.6148L426.955 79.1309Z" fill="white"/>
<path d="M434.439 71.9809L439.31 66.7854L447.118 73.9354L442.237 79.1309L434.439 71.9809Z" fill="white"/>
<path d="M251.791 68.406L240.083 68.7301V86.6148L224.477 88.2354L225.774 100.915L240.083 98.6362L240.368 118.2H252.183C252.134 117.788 252.115 117.336 252.115 116.845L251.791 97.0157L256.711 96.4657V84.8568L251.791 85.3086V68.406Z" fill="white"/>
<path d="M269.351 95.0611V101.239C269.351 103.409 268.153 104.49 265.776 104.49C264.254 104.49 262.417 104.382 260.247 104.165L261.867 114.89C266.631 115.981 271.188 115.755 275.519 114.242C279.634 112.73 281.697 109.803 281.697 105.462V93.4307L295.672 92.7825L295.348 81.4093L282.021 82.3817C281.805 76.5281 281.697 70.6746 281.697 64.821H269.341C269.341 71.1165 269.449 77.3924 269.666 83.6781L256.701 84.8566V96.4655L269.332 95.0611H269.351Z" fill="white"/>
<path d="M283.003 70.6846L287.874 80.1131L293.404 76.5381L288.208 67.7578L283.003 70.6846Z" fill="white"/>
<path d="M289.829 66.7854L295.034 75.5558L300.23 72.305L295.034 63.5247L289.829 66.7854Z" fill="white"/>
<path d="M240.408 121.078C240.408 125.851 241.92 129.318 244.955 131.479C247.99 133.639 252.861 134.622 259.589 134.405C269.341 134.189 279.418 133.639 289.829 132.775V120.42C278.122 121.51 267.829 122.04 258.94 122.04C256.122 122.04 254.275 121.716 253.411 121.068C252.743 120.567 252.331 119.605 252.183 118.2H240.368L240.408 121.068V121.078Z" fill="white"/>
<path d="M329.517 106.876V95.9647C328.388 96.4754 327.248 97.1433 326.099 97.9879C329.566 89.0996 333.907 79.3469 339.103 68.73L327.071 64.5068C320.796 78.7675 314.677 93.087 308.676 107.446H327.641C328.338 107.132 328.957 106.945 329.507 106.876" fill="white"/>
<path d="M311.465 135.054C314.068 127.472 315.904 122.158 316.995 119.123C318.949 114.144 322.082 110.461 326.423 108.065C326.855 107.809 327.258 107.613 327.651 107.436H308.686C305.572 114.9 302.479 122.365 299.444 129.848L311.475 135.054H311.465Z" fill="white"/>
<path d="M332.601 111.325L332.277 125.959C332.061 130.723 334.231 133.757 338.779 135.064C342.678 136.144 346.911 135.496 351.458 133.119C358.392 129.652 364.137 124.123 368.685 116.541L360.228 107.436C359.364 109.607 357.626 112.101 355.023 114.91C351.556 118.809 348.845 121.088 346.891 121.736C345.153 122.178 344.288 121.088 344.288 118.485V104.175C344.288 99.8442 342.226 96.9175 338.111 95.3951C335.292 94.4621 332.424 94.6585 329.497 95.9648V106.876C331.55 106.631 332.581 108.114 332.581 111.325" fill="white"/>
<path d="M296.321 41.5544C295.83 42.3794 296.193 42.8803 297.136 42.6642L331.413 34.6205C332.346 34.4044 332.689 33.5598 332.169 32.7446L317.201 9.36976C316.68 8.55458 315.855 8.57423 315.364 9.39922L296.321 41.5544Z" fill="white"/>
<path d="M380.637 192.41C350.672 192.41 321.552 179.525 301.968 156.464L298.305 152.153L306.928 144.836L310.591 149.147C333.053 175.586 369.627 186.979 403.776 178.179C427.21 172.139 446.48 157.623 458.02 137.313C469 118.004 471.603 95.6209 465.366 74.2888C452.107 28.973 402.784 2.04281 355.426 14.2508C341.46 17.8552 329.046 24.3963 318.556 33.7069L314.323 37.4587L306.82 29.0025L311.053 25.2507C322.73 14.8892 337.099 7.29724 352.607 3.29994C405.809 -10.4205 461.261 20.0061 476.219 71.1165C483.33 95.4146 480.354 120.901 467.851 142.901C454.779 165.903 433.024 182.314 406.595 189.13C398.011 191.34 389.29 192.42 380.637 192.42" fill="white"/>
</g>
</g>
<defs>
<clipPath id="clip0_361_108">
<rect width="480" height="193" fill="white"/>
</clipPath>
</defs>
</svg>
