<svg width="24" height="24" viewBox="0 0 24 24" fill="none" xmlns="http://www.w3.org/2000/svg">
<g clip-path="url(#clip0_166_2081)">
<path d="M13.6468 12.4733C13.1174 11.8815 12.3816 11.5506 11.4395 11.4806C12.2804 11.2528 12.8877 10.92 13.2731 10.4703C13.6585 10.0207 13.8454 9.43093 13.8454 8.67765C13.855 8.1258 13.7223 7.58078 13.46 7.09517C13.1946 6.63582 12.8063 6.25967 12.3388 6.00903C11.9125 5.77546 11.4045 5.60612 10.8089 5.50685C10.2133 5.40758 9.168 5.3667 7.67311 5.3667H4.03516V18.6339H7.78406C9.29063 18.6339 10.3768 18.5832 11.0425 18.482C11.7081 18.3769 12.2629 18.2017 12.7125 17.9623C13.2535 17.6821 13.6987 17.247 13.9914 16.7127C14.2892 16.1755 14.441 15.5506 14.441 14.8382C14.441 13.8514 14.1782 13.063 13.6468 12.4733ZM7.39866 8.30393H8.1753C9.07457 8.30393 9.67798 8.40514 9.98552 8.60758C10.295 8.81195 10.4468 9.16232 10.4468 9.65867C10.4468 10.155 10.2775 10.4762 9.95049 10.6747C9.62348 10.8733 9.01034 10.9667 8.11691 10.9667H7.39866V8.30393ZM10.4819 15.9127C10.1257 16.1287 9.51837 16.2339 8.66581 16.2339H7.39866V13.3433H8.71837C9.59428 13.3433 10.2016 13.4543 10.5227 13.6762C10.8439 13.8981 11.0133 14.2835 11.0133 14.8441C11.0133 15.4047 10.8381 15.7025 10.476 15.9185L10.4819 15.9127Z" fill="white"/>
<path d="M18.2833 15.2764C17.3545 15.2764 16.6016 16.0293 16.6016 16.9581C16.6016 17.8869 17.3545 18.6399 18.2833 18.6399C19.2121 18.6399 19.9651 17.8869 19.9651 16.9581C19.9651 16.0293 19.2121 15.2764 18.2833 15.2764Z" fill="white"/>
<path d="M19.7432 5.3667H16.8235V14.2146H19.7432V5.3667Z" fill="white"/>
</g>
<defs>
<clipPath id="clip0_166_2081">
<rect width="16" height="13.3139" fill="white" transform="translate(4 5.34326)"/>
</clipPath>
</defs>
</svg>
