<svg width="24" height="24" viewBox="0 0 24 24" fill="none" xmlns="http://www.w3.org/2000/svg">
<mask id="mask0_52_2252" style="mask-type:luminance" maskUnits="userSpaceOnUse" x="3" y="3" width="18" height="18">
<path d="M8.29106 3.10694C7.33821 3.15191 6.68741 3.30453 6.11871 3.52737C5.53 3.75688 5.03095 4.06445 4.5345 4.56293C4.03747 5.0617 3.73224 5.56163 3.50448 6.15094C3.28396 6.72109 3.13453 7.3722 3.09245 8.32564C3.05068 9.28083 3.04109 9.58549 3.04575 12.0173C3.05039 14.4488 3.06112 14.754 3.10667 15.7095C3.15222 16.662 3.30427 17.3126 3.52711 17.8816C3.75691 18.4703 4.06416 18.9691 4.56293 19.4658C5.06141 19.9625 5.56163 20.2675 6.15121 20.4956C6.72078 20.7158 7.37216 20.8658 8.32531 20.9076C9.28048 20.9496 9.58542 20.9589 12.0166 20.9543C14.4489 20.9496 14.7539 20.9389 15.709 20.8936C16.6619 20.8481 17.3121 20.6955 17.8814 20.4732C18.4701 20.2428 18.9692 19.9361 19.4656 19.4374C19.962 18.9389 20.2673 18.4387 20.4951 17.8491C20.7156 17.2795 20.8656 16.6281 20.9071 15.6755C20.9488 14.7198 20.9587 14.4145 20.9541 11.983C20.9494 9.55124 20.9384 9.24659 20.8932 8.2917C20.8479 7.33825 20.6953 6.68802 20.4727 6.11873C20.2426 5.53001 19.9357 5.03152 19.4372 4.53449C18.9387 4.03804 18.4385 3.73222 17.8489 3.50503C17.279 3.28451 16.6279 3.13421 15.6748 3.09301C14.7196 3.05064 14.4147 3.04137 11.9826 3.04601C9.55119 3.05065 9.24625 3.0611 8.29106 3.10694ZM8.39553 19.2958C7.52246 19.2578 7.04836 19.1127 6.73239 18.9911C6.31399 18.8292 6.01543 18.6351 5.70119 18.3232C5.38754 18.0101 5.19285 17.7124 5.0295 17.2949C4.90675 16.9789 4.75908 16.5054 4.71817 15.6323C4.67377 14.6884 4.66362 14.4052 4.65926 12.0141C4.65462 9.6235 4.66332 9.3403 4.70453 8.39557C4.74195 7.52307 4.88791 7.04838 5.00918 6.73269C5.17108 6.31371 5.36461 6.01572 5.67711 5.70149C5.99017 5.38725 6.28787 5.19314 6.70568 5.02979C7.02137 4.90646 7.4949 4.75994 8.36767 4.71845C9.31211 4.67376 9.595 4.66419 11.9855 4.65955C14.3767 4.6549 14.6598 4.66332 15.6046 4.70481C16.4771 4.74282 16.9517 4.88732 17.2671 5.00947C17.6858 5.17137 17.9844 5.36433 18.2983 5.67741C18.6123 5.99049 18.807 6.2876 18.9703 6.70629C19.0936 7.0211 19.2402 7.49522 19.2814 8.36771C19.3263 9.31216 19.3365 9.59535 19.3408 11.9859C19.3455 14.3771 19.3368 14.6603 19.2953 15.6044C19.2573 16.4775 19.1125 16.9519 18.9906 17.2682C18.8287 17.6863 18.6352 17.9848 18.3224 18.2991C18.0096 18.6122 17.7119 18.8074 17.2938 18.9708C16.9787 19.0938 16.5046 19.2406 15.6324 19.2821C14.688 19.3265 14.4051 19.3367 12.0137 19.341C9.62314 19.3457 9.34025 19.3367 8.39553 19.2958ZM15.696 7.21319C15.6971 7.80627 16.1794 8.28647 16.7724 8.28531C17.3658 8.28415 17.846 7.8022 17.8451 7.20913C17.844 6.61605 17.3617 6.13557 16.7684 6.13673C16.175 6.13789 15.6948 6.62012 15.696 7.21319ZM7.40177 12.0088C7.40669 14.5486 9.46937 16.6028 12.0085 16.5979C14.5479 16.593 16.6033 14.5309 16.5984 11.9912C16.5934 9.45231 14.5305 7.39686 11.9908 7.40179C9.45166 7.40672 7.39683 9.46972 7.40177 12.0088ZM9.0147 12.0057C9.0118 10.3573 10.3459 9.01824 11.994 9.01533C13.6423 9.01215 14.9816 10.3457 14.9848 11.9943C14.988 13.643 13.6539 14.9818 12.0053 14.985C10.3572 14.9881 9.01789 13.6543 9.0147 12.0057Z" fill="white"/>
</mask>
<g mask="url(#mask0_52_2252)">
<rect x="2.2251" y="2.25098" width="19.5324" height="19.5324" fill="white"/>
</g>
</svg>
