<svg width="24" height="24" viewBox="0 0 24 24" fill="none" xmlns="http://www.w3.org/2000/svg">
<path d="M21 10.7286C21 6.70136 16.9628 3.42499 11.9999 3.42499C7.03775 3.42499 3 6.70136 3 10.7286C3 14.339 6.20183 17.3626 10.5268 17.9343C10.82 17.9975 11.2189 18.1276 11.3198 18.3781C11.4105 18.6057 11.3791 18.9621 11.3488 19.1919C11.3488 19.1919 11.2432 19.827 11.2204 19.9623C11.1813 20.1898 11.0396 20.8522 11.9999 20.4474C12.9606 20.0427 17.1831 17.3955 19.0713 15.2222H19.0709C20.3753 13.7919 21 12.3404 21 10.7286Z" fill="white"/>
<path fill="#10288b" d="M10.1713 8.78219H9.53997C9.44318 8.78219 9.3645 8.86069 9.3645 8.95713V12.8788C9.3645 12.9754 9.44318 13.0537 9.53997 13.0537H10.1713C10.268 13.0537 10.3465 12.9754 10.3465 12.8788V8.95713C10.3465 8.86069 10.268 8.78219 10.1713 8.78219Z"/>
<path fill="#10288b" d="M14.5164 8.78219H13.8851C13.7883 8.78219 13.7098 8.86069 13.7098 8.95713V11.287L11.9127 8.86C11.9086 8.85379 11.904 8.84792 11.8991 8.84223L11.8979 8.84119C11.8945 8.83722 11.891 8.83377 11.8874 8.83032C11.8864 8.82929 11.8853 8.82842 11.8841 8.82739C11.8812 8.82463 11.8781 8.82204 11.8748 8.81962C11.8734 8.81824 11.8719 8.81721 11.8703 8.816C11.8672 8.81393 11.8643 8.81169 11.8612 8.80979C11.8594 8.80858 11.8577 8.80755 11.8558 8.80668C11.8527 8.80479 11.8496 8.80289 11.8465 8.80134C11.8446 8.80047 11.8429 8.79944 11.841 8.79875C11.8377 8.7972 11.8344 8.79564 11.831 8.79444C11.8289 8.79375 11.8272 8.79306 11.8253 8.79236C11.8218 8.79116 11.8184 8.78995 11.8148 8.78909C11.8129 8.7884 11.8108 8.78805 11.8087 8.78736C11.8053 8.78667 11.802 8.78581 11.7987 8.78512C11.7963 8.78477 11.7937 8.78443 11.7913 8.78426C11.7882 8.78357 11.7851 8.78339 11.782 8.78305C11.779 8.7827 11.7761 8.7827 11.773 8.78253C11.7708 8.78253 11.769 8.78219 11.7668 8.78219H11.1357C11.0389 8.78219 10.9602 8.86069 10.9602 8.95713V12.8788C10.9602 12.9754 11.0389 13.0537 11.1357 13.0537H11.7668C11.8638 13.0537 11.9423 12.9754 11.9423 12.8788V10.5496L13.7416 12.9797C13.754 12.9973 13.7694 13.0116 13.7861 13.023C13.7866 13.0233 13.7873 13.0239 13.7878 13.0244C13.7914 13.0266 13.7951 13.0289 13.7987 13.0309C13.8004 13.032 13.802 13.0327 13.8037 13.0335C13.8063 13.0351 13.8092 13.0365 13.812 13.0377C13.8149 13.0389 13.8175 13.0401 13.8206 13.0413C13.8223 13.042 13.824 13.0427 13.8258 13.0432C13.8299 13.0447 13.8337 13.0459 13.8377 13.0472C13.8385 13.0472 13.8394 13.0475 13.8403 13.0477C13.8546 13.0515 13.8696 13.0537 13.8851 13.0537H14.5164C14.6134 13.0537 14.6917 12.9754 14.6917 12.8788V8.95713C14.6917 8.86069 14.6134 8.78219 14.5164 8.78219Z"/>
<path fill="#10288b" d="M8.64957 12.0717H6.93427V8.9573C6.93427 8.86051 6.85577 8.78201 6.75915 8.78201H6.12768C6.03089 8.78201 5.95239 8.86051 5.95239 8.9573V12.8782V12.8786C5.95239 12.9257 5.9712 12.9683 6.00139 12.9997C6.00208 13.0006 6.00277 13.0014 6.00381 13.0023C6.00467 13.0032 6.00553 13.0038 6.00639 13.0047C6.03797 13.0351 6.08041 13.0537 6.12751 13.0537H6.12768H8.64957C8.74636 13.0537 8.82452 12.975 8.82452 12.8782V12.247C8.82452 12.1502 8.74636 12.0717 8.64957 12.0717Z"/>
<path fill="#10288b" d="M18.0028 9.76406C18.0996 9.76406 18.1778 9.68573 18.1778 9.58877V8.95748C18.1778 8.86069 18.0996 8.78201 18.0028 8.78201H15.481H15.4806C15.4333 8.78201 15.3907 8.80099 15.3591 8.83153C15.3585 8.83222 15.3576 8.83274 15.3571 8.83343C15.356 8.83446 15.3552 8.8355 15.3543 8.83653C15.3243 8.86793 15.3057 8.91038 15.3057 8.9573V12.8784C15.3057 12.9255 15.3245 12.9683 15.3547 12.9997C15.3554 13.0006 15.3562 13.0016 15.3571 13.0023C15.3578 13.0032 15.3588 13.004 15.3597 13.0047C15.3911 13.0349 15.4337 13.0537 15.4806 13.0537H15.481H18.0028C18.0996 13.0537 18.1778 12.975 18.1778 12.8784V12.247C18.1778 12.1503 18.0996 12.0717 18.0028 12.0717H16.2877V11.4088H18.0028C18.0996 11.4088 18.1778 11.3303 18.1778 11.2335V10.6022C18.1778 10.5054 18.0996 10.4268 18.0028 10.4268H16.2877V9.76406H18.0028Z"/>
</svg>
