<svg width="32" height="32" viewBox="0 0 32 32" fill="none" xmlns="http://www.w3.org/2000/svg">
<path d="M6.73608 13.7695C5.79482 13.7434 4.47701 13.7957 3.52002 13.7957V18.6904H4.89013V14.988C4.89013 14.988 6.10858 14.9461 6.54786 14.9984C6.96098 15.0455 7.11266 15.3018 7.12834 15.8351C7.13877 16.4417 7.12834 16.7608 7.12834 18.6904H8.49845C8.49845 18.6904 8.51413 16.4836 8.49845 15.7149C8.47752 14.35 8.00162 13.8009 6.73608 13.7695Z" fill="white"/>
<path d="M13.074 13.7539C11.7196 13.7539 10.6162 14.8625 10.6162 16.2274C10.6162 17.5923 11.7196 18.7009 13.074 18.7009C14.4284 18.7009 15.5319 17.5923 15.5319 16.2274C15.5319 14.8625 14.4284 13.7539 13.074 13.7539ZM13.074 17.5191C12.3628 17.5191 11.7876 16.9386 11.7876 16.2222C11.7876 15.5057 12.3628 14.9253 13.074 14.9253C13.7852 14.9253 14.3605 15.5057 14.3605 16.2222C14.3605 16.9439 13.7852 17.5191 13.074 17.5191Z" fill="white"/>
<path d="M28.4801 16.2274C28.4801 14.8625 27.3767 13.7539 26.0222 13.7539C24.6679 13.7539 23.5645 14.8625 23.5645 16.2274C23.5645 17.0275 23.9305 17.7126 24.5005 18.1675C24.898 18.4813 25.4523 18.7009 26.1949 18.7009C26.5557 18.7009 27.4917 18.6016 28.1663 17.8537L27.612 17.1112C27.3767 17.3204 26.7858 17.6132 26.3151 17.6132C25.7189 17.6132 25.3581 17.4982 25.0967 17.2523C24.9346 17.106 24.8195 16.8811 24.7672 16.604H28.4435C28.4644 16.4784 28.4801 16.3581 28.4801 16.2274ZM24.7777 15.7776C24.9136 15.1972 25.3215 14.7684 26.0171 14.7684C26.7439 14.7684 27.1257 15.2286 27.2512 15.7776H24.7777Z" fill="white"/>
<path d="M20.1861 13.2988H18.905V14.6742H17.5872V15.8769H18.905V17.3046H20.1861V15.8769H21.504V14.6742H20.1861V13.2988Z" fill="white"/>
</svg>
