<svg width="24" height="24" viewBox="0 0 24 24" fill="none" xmlns="http://www.w3.org/2000/svg">
<path fill-rule="evenodd" clip-rule="evenodd" d="M12.0111 12.1408C11.9706 12.1031 11.9399 12.0754 11.91 12.0468C10.9416 11.1165 9.97438 10.1851 9.00463 9.2564C8.56039 8.83103 7.87864 8.84665 7.45539 9.2864C7.03852 9.71953 7.04427 10.4055 7.48264 10.8291C8.73926 12.0431 9.9995 13.2535 11.2619 14.4616C11.6825 14.8641 12.3301 14.86 12.7567 14.4626C12.9276 14.3035 13.0942 14.1399 13.2626 13.978C14.342 12.9406 15.4207 11.9025 16.5012 10.8664C16.7608 10.6174 16.8968 10.3166 16.8627 9.95852C16.8193 9.50315 16.5792 9.1754 16.1481 9.0184C15.7183 8.8619 15.3275 8.9564 14.9959 9.27315C14.4531 9.79152 13.9129 10.3128 13.3716 10.8329C12.9212 11.2658 12.4706 11.699 12.0111 12.1408ZM12.0084 4.8358C14.1831 4.8358 16.3578 4.83518 18.5326 4.83618C19.2065 4.83655 19.7857 5.2713 19.9536 5.90304C19.9801 6.00279 19.9967 6.10842 19.9968 6.21142C19.9978 7.91066 20.0062 9.61003 19.9908 11.3091C19.9752 13.0451 19.4501 14.6169 18.3815 15.9892C17.1923 17.5166 15.6587 18.5225 13.7686 18.9594C9.42863 19.9622 5.28278 17.1611 4.25941 13.2406C4.12303 12.718 4.03004 12.1876 4.02554 11.6479C4.01054 9.84027 3.99929 8.03266 4.00004 6.22517C4.00041 5.4643 4.67916 4.8368 5.47165 4.83618C7.65052 4.8348 9.82951 4.8358 12.0084 4.8358Z" fill="white"/>
</svg>
