<svg width="24" height="24" viewBox="0 0 24 24" fill="none" xmlns="http://www.w3.org/2000/svg">
<path d="M17.6916 8.0145C16.9426 7.85428 16.2644 7.45901 15.7558 6.88632C15.2471 6.31362 14.9348 5.59343 14.8641 4.83075V4.5H12.2804V14.754C12.2788 15.208 12.135 15.65 11.8692 16.018C11.6034 16.386 11.229 16.6615 10.7986 16.8058C10.3681 16.95 9.90332 16.9558 9.46945 16.8222C9.03558 16.6887 8.65445 16.4226 8.37963 16.0612C8.10054 15.6939 7.94572 15.2472 7.93763 14.7859C7.92953 14.3246 8.06858 13.8727 8.3346 13.4958C8.60063 13.1189 8.9798 12.8365 9.41714 12.6896C9.85448 12.5427 10.3272 12.5389 10.7669 12.6787V10.0537C9.78652 9.91822 8.78832 10.0925 7.91189 10.5523C7.03547 11.012 6.32466 11.7342 5.87889 12.6178C5.43312 13.5014 5.27468 14.5022 5.42574 15.4803C5.5768 16.4584 6.0298 17.3648 6.72138 18.0727C7.3809 18.7476 8.22654 19.2105 9.15037 19.4026C10.0742 19.5946 11.0343 19.507 11.9081 19.151C12.7819 18.7949 13.5298 18.1865 14.0563 17.4035C14.5828 16.6205 14.8641 15.6983 14.8641 14.7547V9.51525C15.9083 10.2618 17.1603 10.662 18.4439 10.6597V8.0925C18.1911 8.09281 17.939 8.06667 17.6916 8.0145Z" fill="white"/>
</svg>
