<svg width="24" height="24" viewBox="0 0 24 24" fill="none" xmlns="http://www.w3.org/2000/svg">
<path d="M15.8487 9.49782C17.0134 10.3282 18.4402 10.8168 19.9812 10.8168V7.85924C19.6896 7.8593 19.3987 7.82894 19.1134 7.76864V10.0967C17.5725 10.0967 16.1458 9.60814 14.9809 8.77781V14.8134C14.9809 17.8327 12.5268 20.2802 9.49981 20.2802C8.37036 20.2802 7.32053 19.9396 6.44849 19.3555C7.44381 20.3706 8.83186 21.0003 10.3674 21.0003C13.3947 21.0003 15.8488 18.5528 15.8488 15.5333V9.49782H15.8487ZM16.9194 6.514C16.3241 5.86543 15.9333 5.02725 15.8487 4.1006V3.72021H15.0263C15.2333 4.89795 15.9394 5.90413 16.9193 6.514H16.9194ZM8.36306 17.0386C8.03051 16.6038 7.85075 16.0717 7.85156 15.5247C7.85156 14.1438 8.97403 13.0241 10.3589 13.0241C10.6169 13.024 10.8735 13.0635 11.1194 13.1413V10.1176C10.832 10.0783 10.5419 10.0616 10.252 10.0677V12.4212C10.0058 12.3434 9.74919 12.3039 9.49102 12.3041C8.10622 12.3041 6.98381 13.4237 6.98381 14.8047C6.98381 15.7813 7.54483 16.6268 8.36306 17.0386Z" fill="#FF004F"/>
<path d="M14.9808 8.77775C16.1458 9.60808 17.5723 10.0966 19.1132 10.0966V7.76858C18.2531 7.58582 17.4917 7.13756 16.9192 6.514C15.9393 5.90407 15.2332 4.89789 15.0262 3.72021H12.866V15.5332C12.8611 16.9104 11.7405 18.0255 10.3587 18.0255C9.54441 18.0255 8.82096 17.6384 8.36283 17.0386C7.54472 16.6268 6.98364 15.7812 6.98364 14.8048C6.98364 13.4238 8.10604 12.3042 9.49085 12.3042C9.75617 12.3042 10.0119 12.3454 10.2518 12.4213V10.0678C7.27789 10.1291 4.88623 12.5526 4.88623 15.5333C4.88623 17.0212 5.48179 18.3701 6.44844 19.3556C7.32048 19.9396 8.37025 20.2803 9.49976 20.2803C12.5268 20.2803 14.9809 17.8327 14.9809 14.8134V8.77781H14.9808V8.77775Z" fill="black"/>
<path d="M19.1134 7.76831V7.13897C18.3377 7.14014 17.5774 6.92349 16.9193 6.51379C17.5019 7.14986 18.2689 7.5885 19.1134 7.76843V7.76831ZM15.0263 3.71994C15.0065 3.60742 14.9914 3.49414 14.9809 3.38038V3H11.9981V14.8131C11.9934 16.1902 10.8728 17.3052 9.49092 17.3052C9.09915 17.3058 8.71274 17.2144 8.3629 17.0385C8.82103 17.6381 9.54448 18.0252 10.3587 18.0252C11.7405 18.0252 12.8612 16.9102 12.8661 15.5331V3.72001H15.0263V3.71994ZM10.252 10.0675V9.39742C10.0028 9.36343 9.75152 9.34642 9.49996 9.34652C6.47257 9.34652 4.01855 11.7941 4.01855 14.8131C4.01855 16.706 4.98301 18.3741 6.44863 19.3553C5.48199 18.3698 4.88643 17.0209 4.88643 15.533C4.88643 12.5524 7.27803 10.1289 10.252 10.0676V10.0675Z" fill="#00F2EA"/>
</svg>
