<svg width="24" height="24" viewBox="0 0 24 24" fill="none" xmlns="http://www.w3.org/2000/svg">
<path d="M20.6028 7.70873C20.4995 7.33052 20.2981 6.98571 20.0186 6.70865C19.7391 6.43159 19.3913 6.23194 19.0097 6.12958C17.6129 5.75195 11.991 5.75195 11.991 5.75195C11.991 5.75195 6.36888 5.76338 4.97203 6.14101C4.59047 6.24337 4.24263 6.44304 3.96313 6.72011C3.68363 6.99718 3.48224 7.342 3.379 7.72023C2.95649 10.1804 2.79259 13.9292 3.39061 16.291C3.49385 16.6692 3.69525 17.014 3.97475 17.2911C4.25424 17.5681 4.60208 17.7678 4.98363 17.8702C6.38048 18.2478 12.0025 18.2478 12.0025 18.2478C12.0025 18.2478 17.6244 18.2478 19.0212 17.8702C19.4028 17.7678 19.7506 17.5682 20.0301 17.2911C20.3096 17.014 20.511 16.6692 20.6143 16.291C21.0599 13.8273 21.1973 10.0809 20.6028 7.7088V7.70873Z" fill="#FF0000"/>
<path d="M10.2017 14.6771L14.8654 11.9994L10.2017 9.32178V14.6771Z" fill="white"/>
</svg>
